<?xml version="1.0" standalone="no"?>
<!DOCTYPE svg PUBLIC "-//W3C//DTD SVG 20010904//EN"
 "http://www.w3.org/TR/2001/REC-SVG-20010904/DTD/svg10.dtd">
<svg version="1.0" xmlns="http://www.w3.org/2000/svg"
 width="1000.000000pt" height="1000.000000pt" viewBox="0 0 1000.000000 1000.000000"
 preserveAspectRatio="xMidYMid meet">
<metadata>
Created by potrace 1.14, written by Peter Selinger 2001-2017
</metadata>
<g transform="translate(0.000000,1000.000000) scale(0.100000,-0.100000)"
fill="#000000" stroke="none">
<path d="M4928 6951 c-32 -11 -80 -44 -123 -86 -18 -16 -72 -66 -120 -110 -49
-44 -106 -96 -127 -117 -22 -20 -71 -65 -109 -100 -39 -34 -87 -79 -108 -98
-111 -103 -246 -227 -274 -251 -18 -15 -60 -55 -95 -88 -35 -34 -65 -61 -67
-61 -1 0 -27 -24 -58 -52 -30 -29 -94 -89 -142 -133 -49 -44 -100 -91 -115
-105 -15 -14 -69 -63 -121 -110 -51 -47 -104 -96 -119 -110 -15 -14 -69 -63
-120 -110 -187 -169 -230 -215 -230 -242 0 -39 30 -69 70 -71 19 -1 38 -6 42
-12 5 -7 8 -7 8 0 0 6 53 9 142 8 79 -2 157 -3 174 -3 19 -1 39 -9 50 -21 18
-20 19 -56 19 -861 l0 -840 24 -19 c21 -17 42 -19 231 -19 l209 0 18 28 c11
15 75 124 143 242 68 118 144 242 168 275 58 78 183 200 263 258 178 126 416
206 628 210 50 1 91 4 91 7 0 3 -9 33 -21 65 -37 104 -46 199 -47 489 l-1 276
37 1 c120 3 356 -1 398 -6 64 -7 168 -33 213 -53 20 -9 39 -16 42 -16 8 -1
103 -50 109 -56 3 -3 30 -22 61 -43 71 -47 168 -146 224 -227 24 -34 46 -67
48 -74 3 -7 9 -8 19 -1 8 6 41 28 74 50 l59 40 1 128 c0 171 0 171 156 169
120 -2 138 -2 166 -1 9 0 26 0 37 -1 57 -4 110 8 128 31 40 50 13 88 -199 275
-38 34 -94 86 -125 115 -31 30 -87 82 -125 116 -38 33 -87 78 -110 100 -22 21
-82 76 -134 123 -51 47 -110 101 -131 120 -38 36 -185 171 -230 212 -94 85
-208 190 -249 228 -26 25 -83 77 -125 115 -43 39 -94 86 -115 105 -20 19 -82
76 -136 125 -54 50 -109 100 -122 113 -53 52 -97 72 -163 77 -35 2 -76 1 -91
-4z"/>
<path d="M5431 4801 c2 -199 17 -279 73 -396 27 -59 99 -160 140 -200 42 -40
121 -96 171 -122 109 -55 188 -75 315 -76 l115 -2 0 148 c0 171 -14 271 -52
365 -57 143 -141 249 -263 331 -123 83 -238 119 -403 125 l-98 4 2 -177z"/>
<path d="M6749 4666 c-3 -3 -18 -7 -35 -10 -74 -13 -178 -76 -245 -148 -88
-93 -127 -214 -129 -397 l-1 -114 90 6 c208 15 367 130 441 322 19 50 24 85
28 203 l4 142 -74 0 c-41 0 -77 -2 -79 -4z"/>
<path d="M5115 4132 c-59 -7 -191 -44 -259 -73 -152 -65 -318 -203 -407 -339
-71 -108 -201 -341 -196 -353 8 -21 219 -124 307 -151 158 -47 319 -52 478
-15 26 6 52 12 59 13 7 1 16 5 19 9 4 4 14 7 21 7 24 0 145 60 217 108 90 59
200 169 258 257 65 99 198 333 198 348 0 16 -193 117 -275 145 -33 11 -87 26
-120 33 -58 12 -239 18 -300 11z"/>
<path d="M6066 3823 c-166 -37 -301 -160 -356 -324 -18 -51 -22 -90 -23 -194
l-2 -130 78 -1 c130 -2 250 50 344 148 70 75 115 165 129 261 10 68 9 239 -1
245 -17 12 -109 9 -169 -5z"/>
</g>
</svg>
